<?xml version="1.0" standalone="no"?>
<svg version="1.0" xmlns="http://www.w3.org/2000/svg"
 width="1024.000000pt" height="1024.000000pt" viewBox="0 0 1024.000000 1024.000000"
 preserveAspectRatio="xMidYMid meet">

<g transform="translate(0.000000,1024.000000) scale(0.100000,-0.100000)"
fill="#00800088" stroke="none">
<path d="M14 6509 c-11 -19 248 -472 375 -654 125 -179 237 -325 368 -476 l83
-97 138 -7 c189 -9 505 -42 627 -65 28 -6 111 -22 185 -36 506 -96 1083 -272
1708 -520 119 -47 235 -94 257 -104 22 -10 92 -40 155 -68 199 -87 424 -191
650 -301 68 -34 134 -61 145 -61 31 0 270 77 268 86 -1 8 -228 110 -560 253
-354 153 -909 353 -1348 488 -49 15 -55 19 -33 21 38 4 605 -136 923 -229 364
-106 624 -190 1006 -324 146 -51 279 -96 295 -99 34 -8 113 23 363 140 l66 31
-60 22 c-33 12 -69 26 -80 31 -11 5 -56 23 -100 40 -114 45 -112 44 -530 250
-519 257 -904 439 -1126 533 -19 8 -54 23 -79 35 -91 42 -220 96 -400 169
-102 41 -198 80 -215 87 -16 8 -61 26 -100 40 -38 15 -81 32 -95 37 -23 10
-83 33 -295 111 -652 240 -1337 442 -1915 564 -298 63 -666 119 -676 103z"/>
<path d="M10150 5484 c-88 -89 -278 -251 -403 -342 -69 -52 -85 -68 -76 -78 6
-8 15 -14 19 -14 9 0 140 103 241 190 96 83 316 320 297 320 -2 0 -37 -34 -78
-76z"/>
<path d="M8945 4656 c-408 -199 -873 -337 -1315 -391 -517 -63 -1035 -28
-1558 106 -145 37 -346 100 -350 110 -2 4 -27 -7 -56 -25 -29 -17 -112 -60
-184 -96 -73 -35 -132 -67 -132 -70 0 -7 236 -71 385 -103 145 -32 319 -64
425 -77 47 -6 119 -15 160 -21 128 -17 649 -23 820 -10 475 37 914 137 1370
313 166 64 610 276 610 292 0 9 -30 36 -40 35 -3 0 -64 -29 -135 -63z"/>
<path d="M9130 4568 c-304 -193 -689 -380 -1025 -496 -237 -82 -582 -162 -860
-199 -202 -26 -811 -26 -1000 1 -236 33 -460 76 -605 116 -135 37 -334 99
-437 136 l-122 45 -103 -44 c-57 -25 -113 -47 -125 -51 -13 -4 -23 -10 -23
-14 0 -8 133 -62 270 -111 208 -74 483 -149 645 -176 50 -9 110 -20 135 -25
25 -5 128 -19 230 -31 161 -18 224 -20 480 -16 277 5 395 15 630 52 552 89
1118 308 1675 648 174 106 322 208 303 207 -2 0 -32 -19 -68 -42z"/>
</g>
</svg>
